<?xml version="1.0" standalone="no"?>
<!DOCTYPE svg PUBLIC "-//W3C//DTD SVG 1.1//EN" "http://www.w3.org/Graphics/SVG/1.1/DTD/svg11.dtd" >
<svg xmlns="http://www.w3.org/2000/svg">
<metadata>Generated by IcoMoon</metadata>
<defs>
<font id="icomoon" horiz-adv-x="1024">
<font-face units-per-em="1024" ascent="960" descent="-64" />
<missing-glyph horiz-adv-x="1024" />
<glyph unicode="&#x20;" horiz-adv-x="512" d="" />
<glyph unicode="&#x42;" glyph-name="coding" d="M295.39 383.175c0-15.422 13.907-25.066 25.030-17.353 5.162 3.578 8.344 10.196 8.344 17.353 0 15.422-13.907 25.066-25.030 17.353-5.162-3.578-8.344-10.196-8.344-17.353zM691.711 383.175c0-15.422 13.907-25.066 25.030-17.353 5.162 3.578 8.344 10.196 8.344 17.353 0 15.422-13.908 25.066-25.030 17.353-5.162-3.578-8.344-10.196-8.344-17.353zM948.629 511.876c-27.372 0-51.361-17.358-64.771-43.401-45.628 98.947-140.553 190.618-257.866 228.367-63.301 25.258-107.751 73.735-113.247 130.39-5.495-56.655-49.945-105.132-113.246-130.39-117.313-37.75-212.239-129.417-257.867-228.367-13.409 26.043-37.398 43.401-64.77 43.401-42.036 0-76.111-40.918-76.111-91.398 0-50.475 34.076-91.398 76.111-91.398 12.785 0 24.825 3.802 35.404 10.493 3.62-163.899 181.44-270.285 400.484-270.573 219.039 0.283 396.864 106.674 400.484 270.573 10.579-6.691 22.62-10.493 35.404-10.493 42.036 0 76.113 40.918 76.113 91.398-0.009 50.475-34.090 91.398-76.121 91.398 0 0 0 0 0 0zM111.459 391.915c-3.56-13.158-19.412-18.763-35.405-12.524s-26.070 21.963-22.51 35.122c3.56 13.158 19.411 18.763 35.404 12.524s26.071-21.967 22.511-35.122c0 0 0 0 0 0zM512.741 114.623c-175.684 0.274-317.959 83.073-317.959 201.6 0 2.483 0.091 4.943 0.21 7.399 0.041 0.807 0.082 1.615 0.137 2.423 0.11 1.675 0.26 3.341 0.425 5.007 0.223 2.232 0.488 4.455 0.812 6.664 0.032 0.219 0.059 0.438 0.091 0.657 3.537 23.296 12.593 58.846 26.267 79.335 32.853 47.522 91.452 79.179 158.304 79.179 51.466 0 98.006-18.795 131.713-49.106 33.706 30.311 80.247 49.106 131.713 49.106 66.851 0 125.451-31.662 158.304-79.179 13.674-20.489 22.729-56.039 26.266-79.335 0.032-0.219 0.060-0.438 0.092-0.657 0.328-2.209 0.589-4.437 0.812-6.664 0.165-1.666 0.315-3.327 0.425-5.007 0.054-0.808 0.096-1.617 0.137-2.423 0.118-2.456 0.21-4.916 0.21-7.399 0-118.527-142.275-201.321-317.959-201.6 0 0 0 0 0 0zM949.427 379.391c-15.992-6.239-31.844-0.634-35.404 12.524s6.518 28.882 22.511 35.122 31.844 0.634 35.404-12.524c3.56-13.159-6.518-28.883-22.511-35.122 0 0 0 0 0 0z" />
<glyph unicode="&#xe600;" glyph-name="gitcafe" horiz-adv-x="805" d="M230.801 670.985h549.279v-618.043h-68.017v-68.391h-343.95v68.931h342.721v547.963h-410.719v-67.948h-69.315v137.49zM24.763 396.681h68.047v68.184h206.647v-68.498h-205.398v-205.133h136.143v67.201h-68.125v69.344h137.519v-205.821h-206.548v68.116h-68.274c-0.010 69-0.010 137.391-0.010 206.607zM505.327 121.862v343.016h69.010v-68.066h68.577v-69.541h-68.076v-136.329h68.017v-69.079h-137.529zM573.865 739.414v68.087h-68.43v69.355h68.215v68.498h69.237v-68.843h-67.958v-67.85h67.958v-69.245h-69.022zM367.739 945.549h68.882v-68.882h-67.683v-68.322h67.86v-68.785h-68.647v67.88h-68.647v69.403h68.244l-0.010 68.705zM436.957 327.613v-205.507h-68.735v205.507h68.735zM368.065 396.615v68.223h68.667v-68.223h-68.667z" />
<glyph unicode="&#xe601;" glyph-name="daocloud" d="M482.051 704.627l204.968 101.082-205.909 89.851-205.909-88.917zM271.463 427.585l-10.299 166.599 149.753 74.875-211.524 104.825-136.643-59.901 17.783-160.044zM881.695 554.875l19.659 159.109-138.517 59.901-209.649-104.825 151.623-74.875-12.169-166.599zM687.025 348.035l-14.977-217.14 174.084 131.031 26.206 210.585zM276.142 348.035l-185.316 124.483 24.335-211.524 175.025-130.097zM621.502 304.043l-138.517-93.596-140.39 93.596 14.039-222.757 125.415-93.596 123.543 93.596z" />
<glyph unicode="&#xe602;" glyph-name="arrow-left" horiz-adv-x="1263" d="M1028.925 498.453c0 0-691.461 0-691.461 0s234.821 235.229 234.821 235.229c17.309 17.332 17.309 45.473 0 62.852-17.332 17.355-45.423 17.332-62.755-0.023 0 0-310.55-311.078-310.55-311.078-17.332-17.355-17.332-45.495-0.023-62.852 0 0 310.574-311.078 310.574-311.078 8.666-8.666 20.027-12.999 31.389-12.999 11.338 0 22.701 4.332 31.366 13.022 17.309 17.332 17.309 45.471 0 62.827 0 0-234.845 235.23-234.845 235.23s691.485 0 691.485 0c24.505 0 44.389 19.907 44.389 44.436 0 24.554-19.884 44.436-44.389 44.436z" />
<glyph unicode="&#xe603;" glyph-name="logout" horiz-adv-x="1170" d="M1024-64c0 0-731.429 0-731.429 0-80.798 0-146.286 65.487-146.286 146.286 0 0 0 146.286 0 146.286s73.143 0 73.143 0c0 0 0-146.286 0-146.286 0-40.399 32.744-73.143 73.143-73.143 0 0 731.429 0 731.429 0 40.399 0 73.143 32.744 73.143 73.143 0 0 0 731.429 0 731.429 0 40.399-32.744 73.143-73.143 73.143 0 0-731.429 0-731.429 0-40.399 0-73.143-32.744-73.143-73.143 0 0 0-146.286 0-146.286s-73.143 0-73.143 0c0 0 0 146.286 0 146.286 0 80.774 65.487 146.286 146.286 146.286 0 0 731.429 0 731.429 0 80.798 0 146.286-65.512 146.286-146.286 0 0 0-731.429 0-731.429 0-80.798-65.487-146.286-146.286-146.286zM634.27 676.303c-14.287 14.287-14.287 37.425 0 51.712s37.425 14.287 51.712 0c0 0 252.318-252.318 252.318-252.318 7.631-7.631 10.874-17.725 10.362-27.697 0.512-9.972-2.731-20.090-10.362-27.697 0 0-252.318-252.343-252.318-252.343-14.287-14.263-37.425-14.263-51.712 0-14.287 14.287-14.287 37.449 0 51.736 0 0 191.732 191.732 191.732 191.732s-789.431 0-789.431 0c-20.187 0-36.571 16.36-36.571 36.571 0 20.187 16.384 36.571 36.571 36.571 0 0 789.431 0 789.431 0s-191.732 191.732-191.732 191.732z" />
<glyph unicode="&#xe604;" glyph-name="arrow-right" d="M860.16 461.056l-220.16 220.16c-7.424 7.424-19.2 7.424-26.624 0s-7.424-19.2 0-26.624l188.416-188.416h-624.896c-10.24 0-18.688-8.448-18.688-18.688s8.448-18.688 18.688-18.688h625.152l-188.416-188.416c-7.424-7.424-7.424-19.2 0-26.624 3.84-3.84 8.448-5.632 13.056-5.632s9.216 1.792 13.056 5.632l220.16 220.16c7.68 7.936 7.68 20.224 0.256 27.136z" />
<glyph unicode="&#xe605;" glyph-name="businese" d="M936.626 815.171c0 0-241.998 0-241.998 0s0 22.328 0 22.328c0 58.657-95.254 89.333-189.373 89.333s-189.395-30.675-189.395-89.333c0 0 0-22.328 0-22.328s-241.976 0-241.976 0c-40.671 0-73.661-34.994-73.661-78.158 0 0 0-669.963 0-669.963 0-43.164 32.991-78.158 73.661-78.158 0 0 862.742 0 862.742 0 40.671 0 73.639 34.994 73.639 78.158 0 0 0 669.963 0 669.963 0 43.164-32.968 78.158-73.639 78.158zM357.955 837.498c0 12.956 51.623 44.678 147.3 44.678s147.3-31.722 147.3-44.678c0 0 0-22.328 0-22.328s-294.6 0-294.6 0c0 0 0 22.328 0 22.328zM73.884 770.515c0 0 862.742 0 862.742 0 17.408 0 31.566-15.026 31.566-33.503 0 0 0-301.479 0-301.479s-357.732 0-357.732 0c0 24.665-18.833 44.655-42.073 44.655 0 0-126.264 0-126.264 0-23.24 0-42.095-19.99-42.095-44.655 0 0-357.71 0-357.71 0s0 301.479 0 301.479c0 18.477 14.158 33.503 31.566 33.503zM568.387 435.534c0 0 0-66.983 0-66.983s-126.264 0-126.264 0c0 0 0 66.983 0 66.983s126.264 0 126.264 0zM936.626 33.547c0 0-862.742 0-862.742 0-17.408 0-31.566 15.026-31.566 33.503 0 0 0 323.807 0 323.807s357.71 0 357.71 0c0 0 0-22.305 0-22.305 0-24.687 18.855-44.678 42.095-44.678 0 0 126.264 0 126.264 0 23.24 0 42.073 19.99 42.073 44.678 0 0 0 22.305 0 22.305s357.732 0 357.732 0c0 0 0-323.807 0-323.807 0-18.477-14.158-33.503-31.566-33.503z" />
<glyph unicode="&#xe606;" glyph-name="developer" d="M911.595 45.099c0 0-824.832 0-824.832 0-47.957 0-86.827 39.637-86.827 88.533 0 0 0 464.789 0 464.789 0 48.896 38.869 88.533 86.827 88.533 0 0 325.589 0 325.589 0s0 88.533 0 88.533c0 48.896 38.869 88.533 86.827 88.533s86.827-39.637 86.827-88.533c0 0 0-88.533 0-88.533s325.589 0 325.589 0c47.957 0 86.827-39.637 86.827-88.533 0 0 0-464.789 0-464.789 0-48.896-38.869-88.533-86.827-88.533zM347.541 211.349c-0.021-0.043-0.021-0.085-0.021-0.085-0.064 0-0.384 17.301-0.384 17.301s25.323 13.291 44.096 30.507c11.008 9.216 16.107 30.144 16.107 30.144 2.965 18.325 5.163 63.68 5.163 81.963 0 45.632-22.421 94.741-86.955 94.741 0 0 0 0.128-0.021 0.149 0-0.021 0-0.149 0-0.149-64.533 0-86.955-49.109-86.955-94.741 0-18.283 2.197-63.637 5.163-81.963 0 0 5.077-20.928 16.085-30.144 18.795-17.216 44.096-30.507 44.096-30.507s-0.299-17.301-0.384-17.301c0 0 0 0.043-0.021 0.085 0 0 0.661-25.344 0.661-32.896 0-30.165-29.632-44.651-48.256-44.651-0.043 0-0.043 0-0.064 0-56.256-2.539-69.568-21.611-69.675-21.803-3.499-5.589-8.256-11.179-12.651-22.635 0 0 304 0 304 0-4.395 11.456-9.152 17.045-12.629 22.635-0.128 0.192-13.419 19.264-69.696 21.803-0.021 0-0.021 0-0.043 0-18.624 0-48.256 14.485-48.256 44.651 0 7.552 0.64 32.896 0.64 32.896zM542.592 775.488c0 24.448-19.435 44.267-43.413 44.267s-43.413-19.819-43.413-44.267c0 0 0-132.8 0-132.8 0-24.448 19.435-44.267 43.413-44.267s43.413 19.819 43.413 44.267c0 0 0 132.8 0 132.8zM955.008 598.421c0 24.448-19.435 44.267-43.413 44.267 0 0-325.589 0-325.589 0 0-48.896-38.869-88.533-86.827-88.533s-86.827 39.637-86.827 88.533c0 0-325.589 0-325.589 0-23.979 0-43.413-19.819-43.413-44.267 0 0 0-464.789 0-464.789 0-24.448 19.435-44.267 43.413-44.267 0 0 39.019 0 39.019 0 5.013 13.035 14.229 34.283 25.173 49.6 0.533 0.299 18.389 38.485 108.501 39.616 0.085 0.448 0.192 23.040 0.469 22.72-6.955 4.48-16 11.435-22.805 18.091-5.547 3.456-25.216 22.763-31.531 57.152-1.877 11.989-10.603 68.587-10.603 92.224 0 70.187 27.456 141.227 129.216 141.227 0.491 0 2.176 0 2.667 0 101.739 0 129.195-71.040 129.195-141.227 0-23.637-8.704-80.235-10.603-92.224-6.315-34.389-25.963-53.696-31.531-57.152-6.784-6.656-15.829-13.611-22.805-18.091 0.299 0.32 0.384-22.272 0.491-22.72 90.112-1.131 107.968-39.317 108.501-39.616 10.944-15.317 20.16-36.565 25.173-49.6 0 0 386.304 0 386.304 0 23.979 0 43.413 19.819 43.413 44.267 0 0 0 464.789 0 464.789zM846.464 399.232c0 0-260.459 0-260.459 0-11.989 0-21.717 9.899-21.717 22.123s9.728 22.144 21.717 22.144c0 0 260.459 0 260.459 0 11.989 0 21.717-9.92 21.717-22.144s-9.728-22.123-21.717-22.123zM586.005 310.699c0 0 43.413 0 43.413 0 11.989 0 21.696-9.899 21.696-22.123s-9.707-22.144-21.696-22.144c0 0-43.413 0-43.413 0-11.989 0-21.717 9.92-21.717 22.144s9.728 22.123 21.717 22.123zM586.005 222.165c0 0 130.24 0 130.24 0 11.989 0 21.696-9.899 21.696-22.123s-9.707-22.144-21.696-22.144c0 0-130.24 0-130.24 0-11.989 0-21.717 9.92-21.717 22.144s9.728 22.123 21.717 22.123zM672.832 288.576c0 12.224 9.707 22.123 21.696 22.123 0 0 86.827 0 86.827 0 11.989 0 21.717-9.899 21.717-22.123s-9.728-22.144-21.717-22.144c0 0-86.827 0-86.827 0-11.989 0-21.696 9.92-21.696 22.144zM477.483 775.488c0 0 43.392 0 43.392 0s0-44.267 0-44.267c0 0-43.392 0-43.392 0s0 44.267 0 44.267z" />
<glyph unicode="&#xe607;" glyph-name="eye" d="M512 598.272c82.944 0 150.272-67.584 150.272-150.272s-67.584-150.272-150.272-150.272-150.272 67.584-150.272 150.272 67.328 150.272 150.272 150.272zM512 635.648c-103.424 0-187.648-83.712-187.648-187.648s83.712-187.648 187.648-187.648 187.648 83.712 187.648 187.648-84.224 187.648-187.648 187.648v0zM512 160c-193.536 0-368.128 107.008-455.68 279.808-2.816 5.12-2.816 11.52 0 16.64 87.552 172.544 262.144 279.552 455.68 279.552s368.128-107.008 455.68-279.808c2.816-5.12 2.816-11.52 0-16.64-87.552-172.544-262.144-279.552-455.68-279.552zM93.952 448c82.432-154.88 241.92-250.88 418.048-250.88s335.616 96 418.048 250.88c-82.432 154.88-241.92 250.88-418.048 250.88s-335.616-96-418.048-250.88z" />
<glyph unicode="&#xe608;" glyph-name="rebuild" d="M868.096 777.984h-208.128c-10.24 0-18.688-8.448-18.688-18.688v-208.128c0-10.24 8.448-18.688 18.688-18.688s18.688 8.448 18.688 18.688v165.888c93.184-57.6 149.76-158.208 149.76-269.056 0-174.592-142.080-316.416-316.416-316.416s-316.416 141.824-316.416 316.416c0 72.192 25.088 142.848 70.4 198.656 44.8 55.296 107.52 94.464 176.384 109.824 10.24 2.304 16.384 12.032 14.080 22.272s-12.032 16.384-22.272 14.080c-76.8-17.152-147.2-60.928-196.864-122.368-50.688-62.72-78.592-142.080-78.592-222.464 0-195.072 158.72-353.792 353.792-353.792s353.792 158.72 353.792 353.792c0 119.040-58.624 227.584-155.392 292.864h157.696c10.24 0 18.688 8.448 18.688 18.688-0.512 9.984-8.96 18.432-19.2 18.432z" />
<glyph unicode="&#xe609;" glyph-name="shutdown" d="M512 94.208c-195.072 0-353.792 158.72-353.792 353.792 0 116.736 57.6 226.304 154.624 292.352 8.448 5.632 19.968 3.84 26.112-4.608s3.84-19.968-4.608-26.112c-87.040-59.136-138.752-156.928-138.752-261.632 0-174.592 142.080-316.416 316.416-316.416s316.416 141.824 316.416 316.416c0 104.704-51.712 202.496-138.24 261.632-8.448 5.632-10.752 17.152-4.608 26.112 5.632 8.448 17.152 10.752 26.112 4.608 96.256-66.048 154.112-175.36 154.112-292.352 0-195.072-158.72-353.792-353.792-353.792zM512 429.312c-10.24 0-18.688 8.448-18.688 18.688v398.080c0 10.24 8.448 18.688 18.688 18.688s18.688-8.448 18.688-18.688v-398.080c0-10.24-8.448-18.688-18.688-18.688z" />
<glyph unicode="&#xe60a;" glyph-name="medal" d="M778.6-34.2l-130.8 418.6-13.8 0.8c-27.6-14.4-58.8-22.4-92.2-22.4-30.8 0-60 7-86.2 19.4l-154.2-417.2c-3.2-8.4 6.6-15.8 14-10.6l227.2 165.8 220.4-165.6c7.8-5.6 18.4 1.8 15.6 11.2zM928.4 538.4l-89.8 58.6c-3 2-3.6 6.2-1.2 8.8l70 82.4c3 3.6 1 9-3.6 9.8l-106 16.8c-3.6 0.6-5.8 4.2-4.8 7.6l30.6 104c1.4 4.4-2.8 8.6-7.2 7.4l-104-28c-3.4-1-7 1.4-7.4 5l-14 107.6c-0.6 4.6-6 6.8-9.6 3.8l-83.8-68c-2.8-2.2-7-1.6-8.8 1.6l-57 92.8c-2.4 4-8.2 3.8-10.4-0.4l-49.2-96.2c-1.6-3.2-5.8-4.2-8.8-2.2l-89 61.8c-3.8 2.6-9.2 0-9.4-4.6l-6-108.2c-0.2-3.6-3.6-6.2-7-5.6l-106 20.6c-4.6 0.8-8.4-3.6-6.8-8l38.4-101.4c1.2-3.4-0.8-7.2-4.2-8l-105-24.4c-4.6-1-6.2-6.6-3-10l76-77.2c2.6-2.6 2.2-6.8-0.6-9l-85.8-64.8c-3.8-2.8-3-8.6 1.4-10.4l100.8-39.8c3.4-1.4 4.8-5.2 3-8.4l-51.8-94c-2.2-4 0.8-9 5.4-8.8l108 4.4c3.6 0.2 6.4-2.8 6.2-6.4l-9-106.8c-0.4-4.6 4.4-8 8.6-5.8l96.6 47.8c3.2 1.6 7 0 8.2-3.4l35.4-101c1.6-4.4 7.2-5.4 10.2-1.8l68.6 82.8c2.2 2.8 6.4 2.8 9 0.4l73.8-77.8c3.2-3.4 8.8-2 10 2.6l28.8 103.4c1 3.4 4.8 5.2 8 4l99.2-40.8c4.2-1.8 8.8 1.8 8.2 6.4l-16 106c-0.6 3.6 2.2 6.8 5.8 6.8l107.6 3.2c4.6 0.2 7.4 5.2 4.8 9.2l-58 90.2c-2 3-0.8 7 2.4 8.6l97.2 46.8c4.4 1.8 4.8 7.6 1 10zM541.6 405.6c-87 0-157.6 70.6-157.6 157.6s70.6 157.6 157.6 157.6c87 0 157.6-70.6 157.6-157.6s-70.6-157.6-157.6-157.6z" />
<glyph unicode="&#xe60b;" glyph-name="aliyun" d="M425.8 128.333l119.649 75.868c0 0 21.891 27.006 29.903-10.945 0 0 0-78.801 62.74-86.813 0 0 59.808-18.958 94.826 37.917 0 0 45.963 67.854-28.438 124.73 0 0-51.795 35.018-81.698 35.018 0 0-40.85 27.006-40.85-27.006 0 0 13.127-51.795-78.801-48.862 0 0-86.813-10.945-56.909 40.85 0 0 73.686 72.935 89.711 83.88 0 0 67.854 43.781 32.836 108.704 0 0-48.862 62.74-113.785 13.844 0 0-78.050-53.977-140.79 2.933 0 0-76.583 83.88-149.553-10.945 0 0-43.032-88.995 43.781-121.831 0 0 70.753-18.958 108.704 35.018 0 0 61.99 53.977 121.831 18.958 0 0 45.963-13.127-29.903-72.935 0 0-51.795-38.667-67.854-43.781 0 0-105.771-59.808-35.018-151.736-0.034 0.068 40.815-51.726 119.615-2.865zM439.645 603.247c0 0 75.868 78.801 143.722 0 0 0 73.686-59.808 130.561 0 0 0 59.808 56.909-8.013 121.831 0 0-76.583 48.862-130.561-13.844 0 0-51.795-64.922-116.716-5.115 0 0-59.808 70.037-135.675 24.073 0 0-70.753-53.977-8.013-132.027-0.034-0.034 72.901-51.829 124.696 5.081zM732.92 493.827l-81.698-59.808c-5.831-21.891 75.868-75.868 75.868-75.868 70.753-35.018 108.704 2.933 108.704 2.933 65.638 48.862 16.776 119.649 16.776 118.899-51.829 54.693-119.649 13.844-119.649 13.844z" />
<glyph unicode="&#xe60c;" glyph-name="aws" d="M350.583 346.947h-45.053l22.738 93.802h0.387zM771.759 487.879c-1.83 56.317-48.151 101.405-104.889 101.405-21.928 0-42.413-6.758-59.202-18.443-32.382 72.12-104.678 122.488-188.871 122.488-114.287 0-206.892-92.605-206.892-206.892 0-2.042 0.211-4.084 0.211-5.948-61.244-17.81-104.889-89.508-104.889-141.741v-13.728c0-67.79 73.352-136.426 163.67-136.426h482.209c90.353 0 163.67 68.636 163.67 136.426v13.728c0 62.899-63.496 142.164-145.015 149.133zM367.372 276.059l-11.686 46.708h-55.718l-12.284-46.708h-31.538l53.887 190.103h38.93l50.191-190.103h-31.783zM551.949 276.059h-35.021l-24.569 143.185h-0.422l-24.391-143.185h-35.021l-36.888 190.103h30.727l24.991-147.689h0.599l24.991 147.689h31.96l25.589-148.5h0.422l24.779 148.5h30.094l-37.837-190.103zM722.166 304.957c-0.81-2.042-1.655-4.084-2.464-5.948-1.021-1.83-2.042-3.695-3.273-5.315-0.211-0.422-0.422-0.81-0.81-1.021-1.443-1.83-2.851-3.484-4.505-5.105-1.655-1.655-3.273-3.063-5.105-4.294s-3.907-2.464-5.948-3.484c-9.82-5.105-22.315-7.392-36.676-7.392-18.022 0-30.939 4.716-39.527 11.686-0.81 0.81-1.655 1.443-2.464 2.252-4.294 4.084-7.567 8.799-9.82 13.939-0.81 1.443-1.655 3.273-2.042 4.928-1.231 3.273-2.252 6.547-2.675 10.031l-0.599 4.928c-0.599 3.484-0.81 6.969-0.81 10.242v4.716h30.517v-4.928c0-11.475 2.464-20.062 7.567-26.011 5.315-5.948 13.093-8.799 23.548-8.799 4.716 0 9.011 0.81 12.494 2.252 3.695 1.655 6.547 3.695 9.011 6.336 1.231 1.231 2.252 2.675 3.063 4.084 1.021 1.443 1.655 3.063 2.252 4.716 1.231 3.273 1.83 6.758 1.83 10.242 0 19.886-10.031 28.685-27.032 33.79l-20.907 7.18c-2.851 1.021-5.526 2.252-7.99 3.484-2.042 0.81-3.907 1.83-5.526 2.851-4.716 2.464-8.799 5.315-12.072 8.588-1.655 1.443-3.063 3.063-4.505 4.928-1.443 1.83-2.675 3.695-3.695 5.737-0.422 0.599-0.599 1.231-1.021 1.83-1.021 2.042-1.83 4.294-2.464 6.547-1.655 5.315-2.464 11.475-2.464 18.233 0 8.588 1.443 16.403 4.294 22.949 1.231 3.273 3.063 6.547 5.105 9.221 3.907 5.315 8.588 9.82 14.326 13.093 1.83 1.021 3.907 2.042 5.948 3.063 4.294 1.83 8.799 3.273 13.939 4.084 2.464 0.599 4.928 0.81 7.392 1.021 2.675 0.211 5.315 0.422 8.201 0.422 9.221 0 16.789-1.021 23.16-2.851 2.042-0.599 4.084-1.443 5.948-2.252 1.231-0.422 2.252-1.021 3.484-1.655 0.81-0.599 1.83-1.021 2.675-1.655 9.434-6.159 14.326-14.748 16.578-23.548 0.422-1.231 0.599-2.252 0.81-3.484 0.422-2.042 0.599-3.907 0.81-5.948 0.211-1.655 0.211-3.063 0.211-4.505 0.211-1.443 0.211-2.851 0.211-4.294v-4.084h-30.517v3.907c0 4.294-0.422 8.201-1.443 11.686s-2.675 6.547-4.928 8.799c-0.599 0.599-1.231 1.231-1.83 1.655-0.81 0.81-1.83 1.443-2.851 1.83-2.042 1.231-4.716 2.252-7.567 2.675-1.021 0.211-2.042 0.422-3.273 0.599-1.443 0.211-2.851 0.211-4.505 0.211-13.093 0-25.589-7.18-25.589-27.454 0-7.99 2.042-14.149 6.547-19.254 2.464-2.464 5.315-4.716 9.011-6.969 3.484-2.042 7.778-4.084 12.918-5.948l20.485-7.567c5.948-2.042 11.052-4.294 15.347-7.18 1.443-0.599 2.464-1.443 3.695-2.252 1.443-0.81 2.464-1.655 3.695-2.675 0.422-0.422 1.021-0.81 1.231-1.231 3.695-3.273 6.547-6.758 8.588-10.841 0.599-1.021 1.231-2.042 1.655-3.063 0.81-1.655 1.655-3.484 2.042-5.526 1.443-5.105 2.252-10.841 2.252-17.422 0-6.336-0.599-12.072-1.655-17.422-0.634-2.464-1.478-4.928-2.287-7.357zM476.979 466.163l-24.991-147.689h-0.211zM690.84 415.758h30.305v-0.211h-30.305v0.211zM724.419 312.313c1.021 5.315 1.655 11.052 1.655 17.422 0 6.547-0.81 12.284-2.252 17.422 1.655-5.105 2.464-11.052 2.464-17.634 0-6.336-0.634-12.072-1.865-17.212z" />
<glyph unicode="&#xe60d;" glyph-name="azure" d="M470.571 432.691h341.49v302.209l-341.49-47.941zM459.899 432.691v252.937l-261.598-36.587v-216.351zM470.571 422.699v-253.62l341.49-47.941v301.561zM459.899 422.699h-261.598v-215.669l261.598-36.621z" />
<glyph unicode="&#xe60e;" glyph-name="server" d="M262.302 131.981h493.088v-14.116h-493.088v14.116zM501.804 197.177h14.116v-72.219h-14.116v72.219zM527.855 124.923c0-10.49-8.503-18.993-18.993-18.993s-18.993 8.503-18.993 18.993c0 10.49 8.503 18.993 18.993 18.993s18.993-8.503 18.993-18.993zM805.923 721.737h-594.12c-15.207 0-27.142-11.934-27.142-27.142v-106.454c0-15.207 11.934-27.142 27.142-27.142h593.541c14.662 0 27.142 11.934 27.142 27.142v106.999c0.034 14.662-11.9 26.596-26.562 26.596zM262.302 609.351c-17.935 0-32.052 14.116-32.052 32.052s14.116 32.052 32.052 32.052c17.935 0 32.052-14.116 32.052-32.052 0-17.389-14.662-32.052-32.052-32.052zM329.099 626.707c-8.15 0-15.207 6.513-15.207 15.207 0 8.15 6.513 15.207 15.207 15.207 8.15 0 15.207-6.513 15.207-15.207s-6.513-15.207-15.207-15.207zM379.633 626.707c-8.15 0-15.207 6.513-15.207 15.207 0 8.15 6.513 15.207 15.207 15.207 8.15 0 15.207-6.513 15.207-15.207-0.546-8.695-7.093-15.207-15.207-15.207zM786.351 601.747h-277.489v13.571h277.489v-13.571zM786.351 634.856h-277.489v14.116h277.489v-14.116zM786.351 667.454h-277.489v14.116h277.489v-14.116zM805.923 530.585h-594.12c-15.207 0-27.142-11.934-27.142-27.142v-106.454c0-14.662 11.934-27.142 27.142-27.142h593.541c14.662 0 27.142 11.934 27.142 27.142v106.454c0.034 15.207-11.9 27.142-26.562 27.142zM262.302 418.199c-17.935 0-32.052 14.116-32.052 32.052s14.116 32.052 32.052 32.052c17.935 0 32.052-14.116 32.052-32.052 0-17.389-14.662-32.052-32.052-32.052zM329.099 435.554c-8.15 0-15.207 6.513-15.207 15.207 0 8.15 6.513 15.207 15.207 15.207 8.15 0 15.207-6.513 15.207-15.207s-6.513-15.207-15.207-15.207zM379.633 435.554c-8.15 0-15.207 6.513-15.207 15.207 0 8.15 6.513 15.207 15.207 15.207 8.15 0 15.207-6.513 15.207-15.207-0.546-8.695-7.093-15.207-15.207-15.207zM786.351 410.049h-277.489v14.116h277.489v-14.116zM786.351 443.158h-277.489v14.116h277.489v-14.116zM786.351 476.301h-277.489v14.116h277.489v-14.116zM805.923 339.432h-594.12c-15.207 0-27.142-11.934-27.142-27.142v-106.454c0-14.662 11.934-27.142 27.142-27.142h593.541c14.662 0 27.142 11.934 27.142 27.142v106.454c0.034 15.207-11.9 27.142-26.562 27.142zM262.302 227.012c-17.935 0-32.052 14.116-32.052 32.052s14.116 32.052 32.052 32.052c17.935 0 32.052-14.116 32.052-32.052 0-17.901-14.662-32.052-32.052-32.052zM329.099 243.857c-8.15 0-15.207 6.513-15.207 15.207 0 8.15 6.513 15.207 15.207 15.207 8.15 0 15.207-6.513 15.207-15.207 0-8.15-6.513-15.207-15.207-15.207zM379.633 243.857c-8.15 0-15.207 6.513-15.207 15.207 0 8.15 6.513 15.207 15.207 15.207 8.15 0 15.207-6.513 15.207-15.207-0.546-8.15-7.093-15.207-15.207-15.207zM786.351 218.897h-277.489v14.116h277.489v-14.116zM786.351 252.006h-277.489v14.116h277.489v-14.116zM786.351 285.149h-277.489v14.116h277.489v-14.116z" />
<glyph unicode="&#xe60f;" glyph-name="ucloud" d="M777.963 754.233v-463.423c0-76.959-39.281-116.239-65.979-141.37-48.692-47.124-117.807-73.822-201.075-73.822s-158.657 37.713-191.663 67.548c-29.835 26.698-73.822 70.685-73.822 153.952v278.034h59.705v59.705h59.705v58.137h59.705v-395.876c0-40.85 56.569-61.274 87.972-61.274s87.972 21.993 87.972 59.705v458.684h177.479zM246.991 631.719h39.281v-37.713h-39.281v37.713zM306.697 689.822h39.281v-37.713h-39.281v37.713zM366.402 751.096h39.281v-37.713h-39.281v37.713zM309.834 743.253h32.972v-32.972h-32.972v32.972zM250.129 685.116h32.972v-32.972h-32.972v32.972zM198.3 680.411h26.698v-26.698h-26.698v26.698zM258.006 741.685h26.698v-26.698h-26.698v26.698zM317.676 799.787h26.698v-26.698h-26.698v26.698zM201.437 736.979h20.424v-20.424h-20.424v20.424zM261.143 796.65h20.424v-20.424h-20.424v20.424zM204.574 795.081h14.15v-14.15h-14.15v14.15z" />
<glyph unicode="&#xe610;" glyph-name="alipay" horiz-adv-x="1025" d="M934 280v416q0 67-47.5 114.5t-114.5 47.5h-520q-67 0-114.5-47.5t-47.5-114.5v-520q0-67 47.5-114.5t114.5-47.5h520q39 0 73 17.5t57 48 29 68.5q-15 6-32.5 14t-48.5 22l-62 26q-31 14-64.5 29t-64.5 29-54 25q-59-71-122-107t-146-36q-87 0-140 46.5t-46 113.5q2 16 7 31.5t14.5 33 26 31.5 39 24.5 56.5 15 75 0.5q22-2 43-6l33-5q12-2 34.5-8.5t28-8 34.5-11.5 33-11q30 54 47 115h-327v32h162v59h-198v35h198v84q0 2 0.5 4t5 6 10.5 4h81v-98h211v-35h-211v-59h172q-23-95-70-175 23-8 92-30t128-40zM324 206q-44 0-74.5 12t-43 31-17 36-2.5 31q4 18 16.5 34t37.5 28.5 57 12.5q108 0 234-62-95-123-208-123z" />
<glyph unicode="&#xe611;" glyph-name="logo-square" d="M1016.102 380.489l-56.66 174.925-112.496 346.347c-3.915 12.156-17.101 16.071-26.785 11.538-4.327-2.060-8.035-5.975-9.89-11.538l-112.496-346.347h-373.956l-112.496 346.347c-0.412 1.030-0.824 2.060-1.236 3.091-2.060 3.915-5.151 6.593-8.654 8.447-7.005 3.297-15.865 2.266-21.634-3.297 0 0 0 0-0.206 0 0 0 0 0 0 0-2.266-2.060-3.915-4.739-4.945-8.035l-112.702-346.553-27.403-84.063-29.463-90.656c-3.709-11.95-1.648-24.518 5.357-34.408 2.472-3.503 5.357-6.387 8.86-9.066l491.396-356.855 491.396 357.061c4.327 3.091 7.623 6.799 10.302 11.126 5.769 9.478 7.417 21.016 3.709 31.936z" />
<glyph unicode="&#xe612;" glyph-name="stack" d="M915.456 600.128l-403.456 276.224-403.456-276.224 403.456-276.192 403.456 276.192zM512 262.304l-356.128 234.816-47.328-49.12 403.456-276.192 403.456 276.192-47.968 50.176-355.488-235.872zM512 110.112l-356.128 234.816-47.328-49.12 403.456-276.192 403.456 276.192-47.968 50.176-355.488-235.872z" />
</font>
</defs>
</svg>
